<?xml version="1.0" encoding="utf-8"?>
<!-- Generator: Adobe Illustrator 15.1.0, SVG Export Plug-In . SVG Version: 6.00 Build 0)  -->
<!DOCTYPE svg PUBLIC "-//W3C//DTD SVG 1.1//EN" "http://www.w3.org/Graphics/SVG/1.1/DTD/svg11.dtd">
<svg version="1.1" id="Layer_1" xmlns="http://www.w3.org/2000/svg" xmlns:xlink="http://www.w3.org/1999/xlink" x="0px" y="0px"
	 width="792px" height="612px" viewBox="0 0 792 612" enable-background="new 0 0 792 612" xml:space="preserve">
<g>
	<path fill="#FFFFFF" d="M153.896,242.273c-3.746,0-6.762-3.034-6.762-6.772c0-3.732,3.016-6.764,6.762-6.764
		c3.745,0,6.769,3.032,6.769,6.764C160.665,239.24,157.641,242.273,153.896,242.273z"/>
	<path fill="#FFFFFF" d="M67.671,265.997c0-35.719,28.955-64.671,64.668-64.671c35.719,0,64.677,28.952,64.677,64.671
		c0,35.718-28.958,64.671-64.677,64.671C96.625,330.668,67.671,301.715,67.671,265.997z"/>
	<g>
		<g>
			<g>
				<path fill="#231F20" d="M236.768,311.439c-4.229-0.876-7.579-2.433-10.055-4.667c-2.466-2.238-4.207-5.27-5.22-9.084
					c-1.024-3.831-1.526-8.658-1.526-14.479v-8.936c0-6.908,0.521-12.458,1.571-16.651c1.048-4.202,2.842-7.432,5.379-9.704
					c2.547-2.266,5.957-3.791,10.26-4.571c4.3-0.772,9.732-1.165,16.299-1.165h15.031c6.9,0,12.595,0.319,17.059,0.961
					c4.474,0.649,7.99,1.851,10.562,3.61c2.572,1.761,4.368,4.193,5.387,7.305c1.011,3.117,1.516,7.149,1.516,12.09h-17.465
					c0-1.355-0.182-2.558-0.56-3.606c-0.369-1.051-1.171-1.929-2.386-2.642c-1.216-0.71-3.011-1.233-5.38-1.574
					c-2.371-0.336-5.55-0.504-9.545-0.504h-12.998c-3.793,0-6.857,0.149-9.196,0.458c-2.335,0.302-4.125,1-5.379,2.076
					c-1.253,1.083-2.083,2.708-2.484,4.874c-0.409,2.173-0.615,5.116-0.615,8.843v7.71c0,3.458,0.207,6.204,0.615,8.229
					c0.401,2.033,1.215,3.609,2.437,4.721c1.215,1.12,2.94,1.844,5.175,2.184c2.239,0.34,5.18,0.51,8.834,0.51h13.813
					c3.728,0,6.749-0.103,9.089-0.308c2.33-0.202,4.141-0.641,5.43-1.32c1.284-0.672,2.157-1.626,2.591-2.842
					c0.443-1.223,0.666-2.814,0.666-4.776h17.462c0,4.678-0.389,8.585-1.168,11.732c-0.774,3.147-2.401,5.671-4.875,7.562
					c-2.467,1.9-6.012,3.254-10.613,4.066c-4.605,0.809-10.658,1.219-18.173,1.219h-15.435
					C246.362,312.763,241,312.32,236.768,311.439z"/>
				<path fill="#231F20" d="M386.918,242.183v14.014h-55.247v13h53.514v14.116h-53.514v15.228h55.247v14.118h-72.107v-70.476
					H386.918z"/>
				<path fill="#231F20" d="M455.155,242.183c8.873,0,15.44,1.625,19.702,4.871c4.262,3.253,6.4,8.261,6.4,15.037h-18.179
					c0-1.083-0.115-2-0.353-2.748c-0.242-0.74-0.676-1.352-1.322-1.825c-0.64-0.474-1.522-0.814-2.643-1.013
					c-1.117-0.206-2.557-0.308-4.312-0.308h-28.337c-2.366,0-4.333,0.421-5.881,1.267c-1.569,0.847-2.336,2.626-2.336,5.33
					c0,1.424,0.196,2.526,0.601,3.305c0.408,0.779,0.966,1.355,1.675,1.725c0.718,0.377,1.578,0.61,2.592,0.716
					c1.014,0.096,2.129,0.184,3.35,0.25l31.182,1.215c3.99,0.139,7.495,0.459,10.512,0.969c3.012,0.509,5.519,1.488,7.511,2.946
					c1.992,1.455,3.511,3.533,4.52,6.244c1.016,2.706,1.528,6.396,1.528,11.069c0,3.796-0.403,7.018-1.221,9.697
					c-0.812,2.673-2.148,4.891-4.021,6.653c-1.854,1.763-4.31,3.043-7.354,3.857c-3.043,0.817-6.776,1.219-11.172,1.219h-34.935
					c-4.469,0-8.227-0.401-11.273-1.219c-3.044-0.814-5.501-2.046-7.358-3.703c-1.867-1.66-3.184-3.738-3.97-6.253
					c-0.772-2.5-1.158-5.447-1.158-8.83h17.263c0,1.758,0.777,3.185,2.331,4.265c1.558,1.084,3.521,1.622,5.892,1.622h28.232
					c3.721,0,6.505-0.467,8.326-1.42c1.833-0.949,2.733-2.84,2.733-5.685c0-1.292-0.158-2.383-0.499-3.304
					c-0.346-0.913-0.924-1.685-1.776-2.335c-0.852-0.638-2.032-1.13-3.555-1.468c-1.524-0.337-3.501-0.578-5.942-0.716
					l-27.016-1.115c-4.808-0.202-8.853-0.542-12.123-1.014c-3.297-0.474-5.982-1.372-8.086-2.691
					c-2.088-1.321-3.599-3.251-4.517-5.788c-0.908-2.542-1.372-6.008-1.372-10.411c0-3.721,0.475-6.892,1.425-9.498
					c0.945-2.6,2.438-4.724,4.464-6.343c2.038-1.626,4.658-2.794,7.874-3.504c3.215-0.713,7.095-1.067,11.629-1.067H455.155z"/>
				<path fill="#231F20" d="M493.2,242.183h16.866v70.476H493.2V242.183z"/>
				<path fill="#231F20" d="M538.734,285.844c0,2.441,0.268,4.472,0.812,6.096c0.534,1.627,1.404,2.908,2.588,3.86
					c1.186,0.951,2.759,1.627,4.725,2.028c1.958,0.408,4.365,0.612,7.203,0.612h18.29c2.704,0,5.003-0.205,6.906-0.612
					c1.886-0.401,3.411-1.097,4.567-2.078c1.147-0.982,1.998-2.288,2.536-3.912c0.548-1.625,0.812-3.657,0.812-6.091v-43.667h16.966
					v45.393c0,4.67-0.476,8.599-1.43,11.778c-0.946,3.184-2.536,5.757-4.772,7.716c-2.229,1.974-5.191,3.391-8.882,4.272
					c-3.694,0.876-8.249,1.317-13.662,1.317h-24.986c-5.212,0-9.609-0.465-13.196-1.369c-3.586-0.92-6.537-2.388-8.832-4.424
					c-2.305-2.025-3.97-4.633-4.979-7.816c-1.023-3.183-1.523-7.008-1.523-11.474v-45.393h16.857V285.844z"/>
				<path fill="#231F20" d="M642.075,242.183l29.044,51.894l30.06-51.894h25.283v70.476h-16.957v-51.796l-29.245,51.796h-18.276
					l-29.153-51.796v51.796h-16.852v-70.476H642.075z"/>
			</g>
		</g>
		<g>
			<g>
				<path fill="#5C8727" d="M191.776,256.286c-2.136,0-4.202,1.187-5.826,3.325l-20.371,26.955
					c-3.374,4.462-8.166,7.017-13.147,7.017c-0.005,0-0.022,0-0.035,0c-0.018,0-0.027,0-0.038,0c-4.986,0-9.775-2.555-13.145-7.017
					l-20.373-26.955c-1.619-2.138-3.682-3.325-5.826-3.325c-2.133,0-4.209,1.187-5.821,3.325l-20.377,26.955
					c-3.352,4.427-8.096,6.977-13.029,7.017c10.383,21.898,32.63,37.086,58.48,37.086c35.754,0,64.748-28.996,64.748-64.751
					c0-2.539-0.179-5.021-0.464-7.458C195.13,257.062,193.478,256.286,191.776,256.286z"/>
			</g>
			<path fill="#6CADDF" d="M132.269,201.157c-35.762,0-64.76,28.989-64.76,64.76c0,5.688,0.807,11.176,2.189,16.439
				c1.223,0.941,2.583,1.488,3.975,1.488c2.143,0,4.214-1.178,5.835-3.311l20.373-26.956c3.364-4.468,8.161-7.031,13.134-7.031
				c4.976,0,9.765,2.562,13.14,7.031l19.598,25.924l0.848,1.031c1.614,2.126,3.675,3.296,5.795,3.311
				c2.114-0.015,4.174-1.185,5.789-3.311l0.859-1.031l19.599-25.924c3.364-4.468,8.158-7.031,13.132-7.031
				c0.789,0,1.581,0.088,2.358,0.214C185.968,220.344,161.363,201.157,132.269,201.157z M153.896,242.273
				c-3.746,0-6.762-3.034-6.762-6.772c0-3.732,3.016-6.764,6.762-6.764c3.745,0,6.769,3.032,6.769,6.764
				C160.665,239.24,157.641,242.273,153.896,242.273z"/>
		</g>
	</g>
</g>
</svg>
